<svg width="196" height="44" viewBox="0 0 196 44" fill="none" xmlns="http://www.w3.org/2000/svg">
<g filter="url(#filter0_d_2022_118)">
<path d="M99.3032 4.78613H96.1978V3.10889H106.642V4.78613H103.537V14H99.3032V4.78613ZM107.594 8.53613C107.594 7.71094 107.726 6.95654 107.99 6.27295C108.253 5.58447 108.646 4.99365 109.169 4.50049C109.691 4.00732 110.343 3.62402 111.125 3.35059C111.906 3.07715 112.814 2.94043 113.849 2.94043C114.884 2.94043 115.792 3.07715 116.574 3.35059C117.355 3.62402 118.007 4.00732 118.529 4.50049C119.052 4.99365 119.445 5.58447 119.708 6.27295C119.972 6.95654 120.104 7.71094 120.104 8.53613C120.104 9.37109 119.972 10.1353 119.708 10.8286C119.445 11.522 119.052 12.1152 118.529 12.6084C118.007 13.1016 117.355 13.4849 116.574 13.7583C115.792 14.0317 114.884 14.1685 113.849 14.1685C112.814 14.1685 111.906 14.0317 111.125 13.7583C110.343 13.4849 109.691 13.1016 109.169 12.6084C108.646 12.1152 108.253 11.522 107.99 10.8286C107.726 10.1353 107.594 9.37109 107.594 8.53613ZM113.849 12.6523C114.142 12.6523 114.401 12.6011 114.625 12.4985C114.85 12.396 115.038 12.1958 115.189 11.8979C115.341 11.6001 115.456 11.1826 115.534 10.6455C115.612 10.1084 115.651 9.40527 115.651 8.53613C115.651 7.67676 115.612 6.98096 115.534 6.44873C115.456 5.9165 115.341 5.50391 115.189 5.21094C115.038 4.91797 114.85 4.72021 114.625 4.61768C114.401 4.51514 114.142 4.46387 113.849 4.46387C113.556 4.46387 113.295 4.51514 113.065 4.61768C112.841 4.72021 112.653 4.91797 112.501 5.21094C112.35 5.50391 112.235 5.9165 112.157 6.44873C112.079 6.98096 112.04 7.67676 112.04 8.53613C112.04 9.40527 112.079 10.1084 112.157 10.6455C112.235 11.1826 112.35 11.6001 112.501 11.8979C112.653 12.1958 112.841 12.396 113.065 12.4985C113.295 12.6011 113.556 12.6523 113.849 12.6523Z" fill="white"/>
</g>
<g filter="url(#filter1_d_2022_118)">
<path d="M126.442 6.23242H134.909V24.6309C134.919 26.0078 134.709 27.292 134.279 28.4834C133.859 29.6846 133.234 30.7441 132.404 31.6621C131.574 32.5898 130.559 33.3564 129.357 33.9619C128.156 34.5771 126.794 34.9824 125.271 35.1777L124.216 33.4053C124.606 33.1123 124.938 32.7998 125.212 32.4678C125.495 32.1357 125.725 31.75 125.9 31.3105C126.086 30.8809 126.223 30.3828 126.311 29.8164C126.398 29.2598 126.442 28.6055 126.442 27.8535V6.23242ZM139.216 17.0723C139.216 15.4219 139.479 13.9131 140.007 12.5459C140.534 11.1689 141.32 9.9873 142.365 9.00098C143.41 8.01465 144.714 7.24805 146.276 6.70117C147.839 6.1543 149.655 5.88086 151.726 5.88086C153.796 5.88086 155.612 6.1543 157.175 6.70117C158.737 7.24805 160.041 8.01465 161.086 9.00098C162.131 9.9873 162.917 11.1689 163.444 12.5459C163.972 13.9131 164.235 15.4219 164.235 17.0723C164.235 18.7422 163.972 20.2705 163.444 21.6572C162.917 23.0439 162.131 24.2305 161.086 25.2168C160.041 26.2031 158.737 26.9697 157.175 27.5166C155.612 28.0635 153.796 28.3369 151.726 28.3369C149.655 28.3369 147.839 28.0635 146.276 27.5166C144.714 26.9697 143.41 26.2031 142.365 25.2168C141.32 24.2305 140.534 23.0439 140.007 21.6572C139.479 20.2705 139.216 18.7422 139.216 17.0723ZM151.726 25.3047C152.312 25.3047 152.829 25.2021 153.278 24.9971C153.728 24.792 154.104 24.3916 154.406 23.7959C154.709 23.2002 154.938 22.3652 155.095 21.291C155.251 20.2168 155.329 18.8105 155.329 17.0723C155.329 15.3535 155.251 13.9619 155.095 12.8975C154.938 11.833 154.709 11.0078 154.406 10.4219C154.104 9.83594 153.728 9.44043 153.278 9.23535C152.829 9.03027 152.312 8.92773 151.726 8.92773C151.14 8.92773 150.617 9.03027 150.158 9.23535C149.709 9.44043 149.333 9.83594 149.03 10.4219C148.728 11.0078 148.498 11.833 148.342 12.8975C148.186 13.9619 148.107 15.3535 148.107 17.0723C148.107 18.8105 148.186 20.2168 148.342 21.291C148.498 22.3652 148.728 23.2002 149.03 23.7959C149.333 24.3916 149.709 24.792 150.158 24.9971C150.617 25.2021 151.14 25.3047 151.726 25.3047ZM168.527 6.23242H180.041C181.662 6.23242 183.078 6.36914 184.289 6.64258C185.51 6.91602 186.525 7.30664 187.336 7.81445C188.156 8.3125 188.771 8.91797 189.182 9.63086C189.592 10.334 189.797 11.1201 189.797 11.9893C189.797 12.8584 189.553 13.6787 189.064 14.4502C188.586 15.2119 187.883 15.8711 186.955 16.4277C188.479 16.8672 189.616 17.5117 190.368 18.3613C191.12 19.2109 191.496 20.251 191.496 21.4814C191.496 22.3213 191.291 23.1318 190.881 23.9131C190.48 24.6943 189.875 25.3877 189.064 25.9932C188.264 26.5986 187.258 27.0869 186.047 27.458C184.836 27.8193 183.42 28 181.799 28H168.527V6.23242ZM177.902 15.0801C178.703 15.0801 179.377 15.0068 179.924 14.8604C180.471 14.7041 180.905 14.4941 181.228 14.2305C181.56 13.9668 181.794 13.6641 181.931 13.3223C182.077 12.9805 182.15 12.624 182.15 12.2529C182.15 11.8818 182.077 11.5254 181.931 11.1836C181.794 10.8418 181.56 10.5439 181.228 10.29C180.905 10.0264 180.471 9.81641 179.924 9.66016C179.377 9.50391 178.703 9.42578 177.902 9.42578H177.009L176.994 15.0801H177.902ZM177.902 24.8066C178.771 24.8066 179.504 24.7139 180.1 24.5283C180.695 24.3428 181.179 24.0889 181.55 23.7666C181.921 23.4443 182.189 23.0684 182.355 22.6387C182.521 22.1992 182.604 21.7305 182.604 21.2324C182.604 20.793 182.517 20.3633 182.341 19.9434C182.165 19.5234 181.901 19.1523 181.55 18.8301C181.208 18.498 180.783 18.2344 180.275 18.0391C179.768 17.834 179.182 17.7314 178.518 17.7314H176.994V24.8066H177.902Z" fill="white"/>
</g>
<g filter="url(#filter2_d_2022_118)">
<path d="M4.7832 6.23242H16.2969C17.918 6.23242 19.334 6.36914 20.5449 6.64258C21.7656 6.91602 22.7812 7.30664 23.5918 7.81445C24.4121 8.3125 25.0273 8.91797 25.4375 9.63086C25.8477 10.334 26.0527 11.1201 26.0527 11.9893C26.0527 12.8584 25.8086 13.6787 25.3203 14.4502C24.8418 15.2119 24.1387 15.8711 23.2109 16.4277C24.7344 16.8672 25.8721 17.5117 26.624 18.3613C27.376 19.2109 27.752 20.251 27.752 21.4814C27.752 22.3213 27.5469 23.1318 27.1367 23.9131C26.7363 24.6943 26.1309 25.3877 25.3203 25.9932C24.5195 26.5986 23.5137 27.0869 22.3027 27.458C21.0918 27.8193 19.6758 28 18.0547 28H4.7832V6.23242ZM14.1582 15.0801C14.959 15.0801 15.6328 15.0068 16.1797 14.8604C16.7266 14.7041 17.1611 14.4941 17.4834 14.2305C17.8154 13.9668 18.0498 13.6641 18.1865 13.3223C18.333 12.9805 18.4062 12.624 18.4062 12.2529C18.4062 11.8818 18.333 11.5254 18.1865 11.1836C18.0498 10.8418 17.8154 10.5439 17.4834 10.29C17.1611 10.0264 16.7266 9.81641 16.1797 9.66016C15.6328 9.50391 14.959 9.42578 14.1582 9.42578H13.2646L13.25 15.0801H14.1582ZM14.1582 24.8066C15.0273 24.8066 15.7598 24.7139 16.3555 24.5283C16.9512 24.3428 17.4346 24.0889 17.8057 23.7666C18.1768 23.4443 18.4453 23.0684 18.6113 22.6387C18.7773 22.1992 18.8604 21.7305 18.8604 21.2324C18.8604 20.793 18.7725 20.3633 18.5967 19.9434C18.4209 19.5234 18.1572 19.1523 17.8057 18.8301C17.4639 18.498 17.0391 18.2344 16.5312 18.0391C16.0234 17.834 15.4375 17.7314 14.7734 17.7314H13.25V24.8066H14.1582ZM31.7949 6.23242H40.2764L40.2617 28H31.7949V6.23242ZM45.8574 6.23242H58.4111C60.0322 6.23242 61.4482 6.40332 62.6592 6.74512C63.8799 7.08691 64.8955 7.56543 65.7061 8.18066C66.5264 8.7959 67.1416 9.5332 67.5518 10.3926C67.9619 11.252 68.167 12.1992 68.167 13.2344C68.167 14.5137 67.8643 15.6514 67.2588 16.6475C66.6533 17.6338 65.7549 18.4199 64.5635 19.0059L69.1338 28.0146H59.5684L56.1113 20.1045H54.3242V28H45.8574V6.23242ZM54.8369 17.4531C55.5303 17.4531 56.1504 17.3555 56.6973 17.1602C57.2441 16.9648 57.708 16.6914 58.0889 16.3398C58.4697 15.9785 58.7627 15.5537 58.9678 15.0654C59.1729 14.5674 59.2754 14.0254 59.2754 13.4395C59.2754 12.8535 59.1729 12.3164 58.9678 11.8281C58.7627 11.3301 58.4697 10.9053 58.0889 10.5537C57.708 10.1924 57.2441 9.91406 56.6973 9.71875C56.1504 9.52344 55.5303 9.42578 54.8369 9.42578H54.3389L54.3242 17.4531H54.8369Z" fill="white"/>
</g>
<path d="M71.9179 22.5345C70.9113 22.7274 69.8804 22.2209 69.5735 21.243C68.7762 18.7024 68.8066 15.957 69.6874 13.412C70.759 10.3155 73.0037 7.7635 75.9382 6.30553C78.8727 4.84755 82.2624 4.60016 85.3775 5.61661C88.4926 6.63306 91.0841 8.83207 92.5939 11.7402C94.1038 14.6484 94.4113 18.0331 93.4504 21.1658C92.4894 24.2985 90.3368 26.9286 87.4559 28.4899C84.575 30.0512 81.1963 30.4188 78.047 29.5136C74.8978 28.6084 71.8207 25.9777 70.2085 23.125C70.2085 23.125 72.1 23.3556 73 22.8621C73.9576 22.337 75.0078 21 75.0078 21C75.9348 22.6402 77.7039 23.887 79.5147 24.4074C81.3254 24.9278 83.268 24.7165 84.9244 23.8188C86.5808 22.9211 87.8185 21.4089 88.371 19.6077C88.9236 17.8065 88.7467 15.8604 87.8786 14.1883C87.0105 12.5162 85.5205 11.2519 83.7294 10.6675C81.9383 10.0831 79.9894 10.2253 78.3022 11.0636C76.6149 11.9019 75.3243 13.3692 74.7082 15.1496C74.2889 16.3611 74.2047 17.6517 74.4484 18.889C74.6508 19.9164 74.427 21.044 73.6069 21.6949L73.1827 22.0316C72.8985 22.2572 72.5639 22.4107 72.2075 22.479L71.9179 22.5345Z" fill="#4337E6"/>
<defs>
<filter id="filter0_d_2022_118" x="92.1978" y="2.94043" width="31.9062" height="19.228" filterUnits="userSpaceOnUse" color-interpolation-filters="sRGB">
<feFlood flood-opacity="0" result="BackgroundImageFix"/>
<feColorMatrix in="SourceAlpha" type="matrix" values="0 0 0 0 0 0 0 0 0 0 0 0 0 0 0 0 0 0 127 0" result="hardAlpha"/>
<feOffset dy="4"/>
<feGaussianBlur stdDeviation="2"/>
<feComposite in2="hardAlpha" operator="out"/>
<feColorMatrix type="matrix" values="0 0 0 0 0 0 0 0 0 0 0 0 0 0 0 0 0 0 0.25 0"/>
<feBlend mode="normal" in2="BackgroundImageFix" result="effect1_dropShadow_2022_118"/>
<feBlend mode="normal" in="SourceGraphic" in2="effect1_dropShadow_2022_118" result="shape"/>
</filter>
<filter id="filter1_d_2022_118" x="120.216" y="5.88086" width="75.2803" height="37.2969" filterUnits="userSpaceOnUse" color-interpolation-filters="sRGB">
<feFlood flood-opacity="0" result="BackgroundImageFix"/>
<feColorMatrix in="SourceAlpha" type="matrix" values="0 0 0 0 0 0 0 0 0 0 0 0 0 0 0 0 0 0 127 0" result="hardAlpha"/>
<feOffset dy="4"/>
<feGaussianBlur stdDeviation="2"/>
<feComposite in2="hardAlpha" operator="out"/>
<feColorMatrix type="matrix" values="0 0 0 0 0 0 0 0 0 0 0 0 0 0 0 0 0 0 0.25 0"/>
<feBlend mode="normal" in2="BackgroundImageFix" result="effect1_dropShadow_2022_118"/>
<feBlend mode="normal" in="SourceGraphic" in2="effect1_dropShadow_2022_118" result="shape"/>
</filter>
<filter id="filter2_d_2022_118" x="0.783203" y="6.23242" width="72.3506" height="29.7822" filterUnits="userSpaceOnUse" color-interpolation-filters="sRGB">
<feFlood flood-opacity="0" result="BackgroundImageFix"/>
<feColorMatrix in="SourceAlpha" type="matrix" values="0 0 0 0 0 0 0 0 0 0 0 0 0 0 0 0 0 0 127 0" result="hardAlpha"/>
<feOffset dy="4"/>
<feGaussianBlur stdDeviation="2"/>
<feComposite in2="hardAlpha" operator="out"/>
<feColorMatrix type="matrix" values="0 0 0 0 0 0 0 0 0 0 0 0 0 0 0 0 0 0 0.25 0"/>
<feBlend mode="normal" in2="BackgroundImageFix" result="effect1_dropShadow_2022_118"/>
<feBlend mode="normal" in="SourceGraphic" in2="effect1_dropShadow_2022_118" result="shape"/>
</filter>
</defs>
</svg>
