<svg width="42" height="42" viewBox="0 0 42 42" fill="none" xmlns="http://www.w3.org/2000/svg">
<path d="M4.90206 29.4579C3.211 29.782 1.47911 28.931 0.963505 27.2882C-0.376053 23.0201 -0.324822 18.4077 1.15477 14.1322C2.95509 8.92999 6.72616 4.6427 11.6562 2.1933C16.5861 -0.256095 22.2808 -0.671712 27.5142 1.03592C32.7476 2.74356 37.1012 6.43789 39.6378 11.3236C42.1743 16.2093 42.691 21.8957 41.0766 27.1586C39.4622 32.4215 35.8458 36.84 31.0059 39.4629C26.166 42.0859 20.4897 42.7035 15.199 41.1828C9.90823 39.6621 4.7388 35.2425 2.0303 30.45C2.0303 30.45 5.20807 30.8374 6.72001 30.0083C8.3287 29.1261 10.0931 26.88 10.0931 26.88C11.6504 29.6355 14.6226 31.7301 17.6646 32.6044C20.7066 33.4787 23.9703 33.1236 26.753 31.6155C29.5358 30.1074 31.6151 27.5669 32.5433 24.541C33.4716 21.515 33.1745 18.2455 31.716 15.4364C30.2576 12.6273 27.7544 10.5032 24.7454 9.52136C21.7364 8.53953 18.4622 8.7785 15.6276 10.1868C12.793 11.5951 10.6248 14.0602 9.5897 17.0513C8.88533 19.0866 8.74397 21.2548 9.15335 23.3335C9.49328 25.0595 9.11742 26.9538 7.73952 28.0475L7.02694 28.613C6.54941 28.992 5.98729 29.2499 5.38853 29.3647L4.90206 29.4579Z" fill="#4337E6"/>
</svg>
